# xmcd
#
# Track frame offsets:
#	150
#	15786
#	33485
#	49519
#	66413
#	83919
#	99826
#	114014
#	131447
#	146415
#	162993
#	177215
#	192573
#	210535
#	228303
#	245016
#	257760
#	273476
#	288490
#	305203
#	321347
#	339543
#
# Disc length: 4718 seconds
#
# Revision: 0
# Processed by: cddbd v1.5.2PL0 Copyright (c) Steve Scherf et al.
# Submitted via: dBpowerAMP V4.0
#
DISCID=3a126c16
DTITLE=Various Artist - Nu Country Traxx Volume 187 CAN
DYEAR=2010
DGENRE=Country
TTITLE0=Alan Jackson - It's Just That Way
TTITLE1=Trace Adkins - Ala-Freakin-Bama
TTITLE2=Uncle Kracker - Smile [Country Version]
TTITLE3=Chad Brownlee - Best That I Can (Superhero)
TTITLE4=Zac Brown Band - Highway 20 Ride
TTITLE5=Emerson Drive - The Extra Mile
TTITLE6=Danny Gokey - My Best Days Are Ahead Of Me
TTITLE7=Bucky Covington - Gotta Be Somebody
TTITLE8=One More Girl - Tumblin' Tears
TTITLE9=Jann Arden - Free (Country)
TTITLE10=Love And Theft - Dancing In Circles
TTITLE11=Megan Mullins - Tradin' In My Halo For Horns
TTITLE12=Steve Azar - Sunshine
TTITLE13=Darryl Worley - Best of Both Worlds
TTITLE14=Jessica Harp - A Woman NeedsJessica Harp
TTITLE15=Jerrod Niemann - One More Drinkin' Song
TTITLE16=Clay Walker - She Won't Be Lonely Long
TTITLE17=James House - I Love You Man
TTITLE18=John Anderson - Bigger Hands
TTITLE19=Burns and Poe - It's Always A Woman
TTITLE20=James Wesley - Jackson Hole
TTITLE21=Jason Crabb - Somebody Like Me
EXTD=
EXTT0=
EXTT1=
EXTT2=
EXTT3=
EXTT4=
EXTT5=
EXTT6=
EXTT7=
EXTT8=
EXTT9=
EXTT10=
EXTT11=
EXTT12=
EXTT13=
EXTT14=
EXTT15=
EXTT16=
EXTT17=
EXTT18=
EXTT19=
EXTT20=
EXTT21=
PLAYORDER=
